# xmcd
# Track frame offsets:
# 150
# 12217
# 25517
# 41342
# 53700
# 68405
# 82277
# 93450
# 107722
# 119912
# 141315
# 154152
# 169512
#
# Disc length: 2431 seconds
# Revision: 0
# Processed by: cddbd v1.4PL0 Copyright (c) Steve Scherf et al.
# Submitted via: VisiTrax 2.9.5.180 - For more info visit www.synapsa.com
#
DISCID=a5097d0d
DTITLE=G Thomas - Lost and found
DYEAR=1900
DGENRE=
TTITLE0=So bad so good
TTITLE1=Love's found you and me
TTITLE2=Roll with the punches
TTITLE3=Heartache in disguise
TTITLE4=Homefree
TTITLE5=After me, after you
TTITLE6=Yours truly
TTITLE7=Soldiers of love
TTITLE8=Down came the world
TTITLE9=Honky tonk healing
TTITLE10=Fun flies
TTITLE11=Everybody makes their own hell
TTITLE12=North Carolina
EXTD=
EXTT0=
EXTT1=
EXTT2=
EXTT3=
EXTT4=
EXTT5=
EXTT6=
EXTT7=
EXTT8=
EXTT9=
EXTT10=
EXTT11=
EXTT12=
PLAYORDER=
